<?xml version="1.0" encoding="UTF-8"?>
<svg xmlns="http://www.w3.org/2000/svg" xmlns:xlink="http://www.w3.org/1999/xlink" width="500pt" height="500pt" viewBox="0 0 500 500" version="1.1">
<g id="surface1">
<path style=" stroke:none;fill-rule:nonzero;fill:#ffffff;fill-opacity:1;" d="M 81.25 81.25 C 64.0625 81.25 50 95.3125 50 112.5 L 50 418.75 L 450 418.75 L 450 112.5 C 450 95.3125 435.9375 81.25 418.75 81.25 Z M 81.25 93.75 L 418.75 93.75 C 429.175781 93.75 437.5 102.074219 437.5 112.5 L 437.5 131.25 C 434.058594 131.25 431.25 134.058594 431.25 137.5 C 431.25 140.941406 434.058594 143.75 437.5 143.75 L 437.5 406.25 L 62.5 406.25 L 62.5 143.75 C 65.941406 143.75 68.75 140.941406 68.75 137.5 C 68.75 134.058594 65.941406 131.25 62.5 131.25 L 62.5 112.5 C 62.5 102.074219 70.824219 93.75 81.25 93.75 Z M 87.5 131.25 C 84.058594 131.25 81.25 134.058594 81.25 137.5 C 81.25 140.941406 84.058594 143.75 87.5 143.75 C 90.941406 143.75 93.75 140.941406 93.75 137.5 C 93.75 134.058594 90.941406 131.25 87.5 131.25 Z M 112.5 131.25 C 109.058594 131.25 106.25 134.058594 106.25 137.5 C 106.25 140.941406 109.058594 143.75 112.5 143.75 C 115.941406 143.75 118.75 140.941406 118.75 137.5 C 118.75 134.058594 115.941406 131.25 112.5 131.25 Z M 137.5 131.25 C 134.058594 131.25 131.25 134.058594 131.25 137.5 C 131.25 140.941406 134.058594 143.75 137.5 143.75 C 140.941406 143.75 143.75 140.941406 143.75 137.5 C 143.75 134.058594 140.941406 131.25 137.5 131.25 Z M 162.5 131.25 C 159.058594 131.25 156.25 134.058594 156.25 137.5 C 156.25 140.941406 159.058594 143.75 162.5 143.75 C 165.941406 143.75 168.75 140.941406 168.75 137.5 C 168.75 134.058594 165.941406 131.25 162.5 131.25 Z M 187.5 131.25 C 184.058594 131.25 181.25 134.058594 181.25 137.5 C 181.25 140.941406 184.058594 143.75 187.5 143.75 C 190.941406 143.75 193.75 140.941406 193.75 137.5 C 193.75 134.058594 190.941406 131.25 187.5 131.25 Z M 212.5 131.25 C 209.058594 131.25 206.25 134.058594 206.25 137.5 C 206.25 140.941406 209.058594 143.75 212.5 143.75 C 215.941406 143.75 218.75 140.941406 218.75 137.5 C 218.75 134.058594 215.941406 131.25 212.5 131.25 Z M 237.5 131.25 C 234.058594 131.25 231.25 134.058594 231.25 137.5 C 231.25 140.941406 234.058594 143.75 237.5 143.75 C 240.941406 143.75 243.75 140.941406 243.75 137.5 C 243.75 134.058594 240.941406 131.25 237.5 131.25 Z M 262.5 131.25 C 259.058594 131.25 256.25 134.058594 256.25 137.5 C 256.25 140.941406 259.058594 143.75 262.5 143.75 C 265.941406 143.75 268.75 140.941406 268.75 137.5 C 268.75 134.058594 265.941406 131.25 262.5 131.25 Z M 287.5 131.25 C 284.058594 131.25 281.25 134.058594 281.25 137.5 C 281.25 140.941406 284.058594 143.75 287.5 143.75 C 290.941406 143.75 293.75 140.941406 293.75 137.5 C 293.75 134.058594 290.941406 131.25 287.5 131.25 Z M 312.5 131.25 C 309.058594 131.25 306.25 134.058594 306.25 137.5 C 306.25 140.941406 309.058594 143.75 312.5 143.75 C 315.941406 143.75 318.75 140.941406 318.75 137.5 C 318.75 134.058594 315.941406 131.25 312.5 131.25 Z M 337.5 131.25 C 334.058594 131.25 331.25 134.058594 331.25 137.5 C 331.25 140.941406 334.058594 143.75 337.5 143.75 C 340.941406 143.75 343.75 140.941406 343.75 137.5 C 343.75 134.058594 340.941406 131.25 337.5 131.25 Z M 362.5 131.25 C 359.058594 131.25 356.25 134.058594 356.25 137.5 C 356.25 140.941406 359.058594 143.75 362.5 143.75 C 365.941406 143.75 368.75 140.941406 368.75 137.5 C 368.75 134.058594 365.941406 131.25 362.5 131.25 Z M 387.5 131.25 C 384.058594 131.25 381.25 134.058594 381.25 137.5 C 381.25 140.941406 384.058594 143.75 387.5 143.75 C 390.941406 143.75 393.75 140.941406 393.75 137.5 C 393.75 134.058594 390.941406 131.25 387.5 131.25 Z M 412.5 131.25 C 409.058594 131.25 406.25 134.058594 406.25 137.5 C 406.25 140.941406 409.058594 143.75 412.5 143.75 C 415.941406 143.75 418.75 140.941406 418.75 137.5 C 418.75 134.058594 415.941406 131.25 412.5 131.25 Z M 271.730469 193.75 L 206.25 362.5 L 218.773438 362.5 L 284.253906 193.75 Z M 176.832031 226.832031 L 128.664063 275 L 176.832031 323.167969 L 185.667969 314.332031 L 146.339844 275 L 185.667969 235.667969 Z M 323.167969 226.832031 L 314.332031 235.667969 L 353.664063 275 L 314.332031 314.332031 L 323.167969 323.167969 L 371.339844 275 Z "/>
</g>
</svg>
