<?xml version="1.0" encoding="UTF-8"?>
<svg xmlns="http://www.w3.org/2000/svg" xmlns:xlink="http://www.w3.org/1999/xlink" width="500pt" height="500pt" viewBox="0 0 500 500" version="1.1">
<g id="surface1">
<path style=" stroke:none;fill-rule:nonzero;fill:#ffffff;fill-opacity:1;" d="M 250 43.75 C 242.871094 43.75 235.5 47.121094 227.050781 52.441406 C 218.578125 57.738281 209.425781 65.308594 200.855469 74.707031 C 183.691406 93.480469 168.75 119.800781 168.75 150 L 168.75 244.605469 L 120.070313 300.539063 C 111.15625 310.765625 106.25 323.878906 106.25 337.453125 L 106.25 356.25 C 106.25 359.691406 109.058594 362.5 112.5 362.5 L 172.632813 362.5 C 175.464844 367.285156 179.566406 371.144531 184.816406 373.167969 C 182.765625 376.515625 181.25 380.199219 181.25 384.375 C 181.25 396.386719 191.113281 406.25 203.125 406.25 L 206.617188 406.25 C 210.328125 444.238281 246.535156 467.699219 246.535156 467.699219 L 250 470.019531 L 253.46875 467.699219 C 253.46875 467.699219 289.671875 444.238281 293.382813 406.25 L 296.875 406.25 C 308.886719 406.25 318.75 396.386719 318.75 384.375 C 318.75 380.199219 317.238281 376.515625 315.1875 373.167969 C 320.433594 371.144531 324.535156 367.285156 327.367188 362.5 L 387.5 362.5 C 390.941406 362.5 393.75 359.691406 393.75 356.25 L 393.75 337.453125 C 393.75 323.878906 388.84375 310.765625 379.933594 300.539063 L 331.25 244.605469 L 331.25 150 C 331.25 119.800781 316.308594 93.480469 299.144531 74.707031 C 290.578125 65.308594 281.421875 57.738281 272.949219 52.441406 C 264.503906 47.121094 257.128906 43.75 250 43.75 Z M 250 56.25 C 252.246094 56.25 258.9375 58.351563 266.308594 62.988281 C 273.65625 67.652344 282.082031 74.535156 289.917969 83.105469 C 305.566406 100.269531 318.75 123.949219 318.75 150 L 318.75 246.925781 C 318.75 247.4375 318.824219 247.949219 318.945313 248.460938 C 318.824219 248.976563 318.75 249.488281 318.75 250 C 318.75 253.394531 321.4375 256.152344 324.828125 256.25 L 370.507813 308.742188 C 377.441406 316.699219 381.25 326.90625 381.25 337.453125 L 381.25 350 L 331.25 350 C 331.25 349.78125 331.226563 349.585938 331.226563 349.390625 C 330.882813 346.191406 328.199219 343.75 325 343.75 C 321.605469 343.75 318.824219 346.460938 318.75 349.878906 C 318.75 349.902344 318.75 349.953125 318.75 350 C 318.75 356.984375 313.234375 362.5 306.25 362.5 L 296.875 362.5 C 296.460938 362.5 296.046875 362.550781 295.628906 362.648438 C 295.214844 362.746094 294.824219 362.867188 294.433594 363.011719 C 293.675781 363.355469 292.992188 363.84375 292.40625 364.453125 C 292.140625 364.746094 291.871094 365.089844 291.652344 365.429688 C 291.429688 365.796875 291.234375 366.164063 291.113281 366.578125 C 290.601563 367.945313 290.578125 369.457031 291.089844 370.851563 C 291.136719 371.046875 291.234375 371.242188 291.308594 371.4375 C 291.945313 372.753906 293.042969 373.828125 294.359375 374.4375 C 294.75 374.609375 295.140625 374.757813 295.558594 374.828125 C 295.753906 374.878906 295.972656 374.925781 296.167969 374.953125 C 296.410156 374.976563 296.632813 375 296.875 375 C 302.125 375 306.25 379.125 306.25 384.375 C 306.25 389.625 302.125 393.75 296.875 393.75 L 203.125 393.75 C 197.875 393.75 193.75 389.625 193.75 384.375 C 193.75 379.125 197.875 375 203.125 375 C 203.761719 375 204.371094 374.878906 204.980469 374.707031 C 205.371094 374.5625 205.761719 374.390625 206.128906 374.195313 C 207.03125 373.683594 207.789063 372.949219 208.351563 372.070313 C 208.449219 371.875 208.546875 371.703125 208.644531 371.507813 C 208.742188 371.3125 208.8125 371.144531 208.886719 370.921875 C 209.179688 370.140625 209.328125 369.3125 209.277344 368.480469 C 209.277344 368.261719 209.253906 368.066406 209.230469 367.871094 C 209.132813 367.238281 208.960938 366.625 208.691406 366.066406 C 208.59375 365.871094 208.496094 365.699219 208.398438 365.527344 C 208.277344 365.332031 208.15625 365.160156 208.03125 365.015625 C 207.910156 364.84375 207.789063 364.671875 207.640625 364.527344 C 207.347656 364.210938 207.03125 363.941406 206.714844 363.671875 C 206.542969 363.574219 206.347656 363.453125 206.175781 363.355469 C 205.640625 363.039063 205.054688 362.792969 204.445313 362.671875 C 204.25 362.621094 204.027344 362.574219 203.832031 362.550781 C 203.589844 362.523438 203.371094 362.5 203.125 362.5 L 193.75 362.5 C 186.769531 362.5 181.273438 357.007813 181.25 350.023438 C 181.25 350.023438 181.25 350.023438 181.25 350 C 181.25 349.78125 181.226563 349.585938 181.226563 349.390625 C 180.882813 346.191406 178.199219 343.75 175 343.75 C 171.605469 343.75 168.824219 346.460938 168.75 349.878906 C 168.75 349.902344 168.75 349.953125 168.75 350 L 118.75 350 L 118.75 337.453125 C 118.75 326.90625 122.558594 316.699219 129.492188 308.742188 L 175.195313 256.25 C 178.566406 256.128906 181.25 253.371094 181.25 250 C 181.25 249.488281 181.175781 248.976563 181.054688 248.460938 C 181.175781 247.972656 181.25 247.460938 181.25 246.949219 L 181.25 150 C 181.25 123.949219 194.433594 100.269531 210.082031 83.105469 C 217.921875 74.535156 226.34375 67.652344 233.691406 62.988281 C 241.066406 58.351563 247.753906 56.25 250 56.25 Z M 200 125 C 196.558594 125 193.75 127.808594 193.75 131.25 C 193.75 134.691406 196.558594 137.5 200 137.5 C 203.441406 137.5 206.25 134.691406 206.25 131.25 C 206.25 127.808594 203.441406 125 200 125 Z M 225 125 C 221.558594 125 218.75 127.808594 218.75 131.25 C 218.75 134.691406 221.558594 137.5 225 137.5 C 228.441406 137.5 231.25 134.691406 231.25 131.25 C 231.25 127.808594 228.441406 125 225 125 Z M 250 125 C 246.558594 125 243.75 127.808594 243.75 131.25 C 243.75 134.691406 246.558594 137.5 250 137.5 C 253.441406 137.5 256.25 134.691406 256.25 131.25 C 256.25 127.808594 253.441406 125 250 125 Z M 275 125 C 271.558594 125 268.75 127.808594 268.75 131.25 C 268.75 134.691406 271.558594 137.5 275 137.5 C 278.441406 137.5 281.25 134.691406 281.25 131.25 C 281.25 127.808594 278.441406 125 275 125 Z M 300 125 C 296.558594 125 293.75 127.808594 293.75 131.25 C 293.75 134.691406 296.558594 137.5 300 137.5 C 303.441406 137.5 306.25 134.691406 306.25 131.25 C 306.25 127.808594 303.441406 125 300 125 Z M 250 175 C 225.902344 175 206.25 194.652344 206.25 218.75 C 206.25 242.847656 225.902344 262.5 250 262.5 C 274.097656 262.5 293.75 242.847656 293.75 218.75 C 293.75 194.652344 274.097656 175 250 175 Z M 250 187.5 C 267.335938 187.5 281.25 201.417969 281.25 218.75 C 281.25 236.085938 267.335938 250 250 250 C 232.667969 250 218.75 236.085938 218.75 218.75 C 218.75 201.417969 232.667969 187.5 250 187.5 Z M 175 268.75 C 171.558594 268.75 168.75 271.558594 168.75 275 C 168.75 278.441406 171.558594 281.25 175 281.25 C 178.441406 281.25 181.25 278.441406 181.25 275 C 181.25 271.558594 178.441406 268.75 175 268.75 Z M 325 268.75 C 321.558594 268.75 318.75 271.558594 318.75 275 C 318.75 278.441406 321.558594 281.25 325 281.25 C 328.441406 281.25 331.25 278.441406 331.25 275 C 331.25 271.558594 328.441406 268.75 325 268.75 Z M 175 293.75 C 171.558594 293.75 168.75 296.558594 168.75 300 C 168.75 303.441406 171.558594 306.25 175 306.25 C 178.441406 306.25 181.25 303.441406 181.25 300 C 181.25 296.558594 178.441406 293.75 175 293.75 Z M 325 293.75 C 321.558594 293.75 318.75 296.558594 318.75 300 C 318.75 303.441406 321.558594 306.25 325 306.25 C 328.441406 306.25 331.25 303.441406 331.25 300 C 331.25 296.558594 328.441406 293.75 325 293.75 Z M 175 318.75 C 171.558594 318.75 168.75 321.558594 168.75 325 C 168.75 328.441406 171.558594 331.25 175 331.25 C 178.441406 331.25 181.25 328.441406 181.25 325 C 181.25 321.558594 178.441406 318.75 175 318.75 Z M 325 318.75 C 321.558594 318.75 318.75 321.558594 318.75 325 C 318.75 328.441406 321.558594 331.25 325 331.25 C 328.441406 331.25 331.25 328.441406 331.25 325 C 331.25 321.558594 328.441406 318.75 325 318.75 Z M 225 362.5 C 221.558594 362.5 218.75 365.308594 218.75 368.75 C 218.75 372.191406 221.558594 375 225 375 C 228.441406 375 231.25 372.191406 231.25 368.75 C 231.25 365.308594 228.441406 362.5 225 362.5 Z M 250 362.5 C 246.558594 362.5 243.75 365.308594 243.75 368.75 C 243.75 372.191406 246.558594 375 250 375 C 253.441406 375 256.25 372.191406 256.25 368.75 C 256.25 365.308594 253.441406 362.5 250 362.5 Z M 275 362.5 C 271.558594 362.5 268.75 365.308594 268.75 368.75 C 268.75 372.191406 271.558594 375 275 375 C 278.441406 375 281.25 372.191406 281.25 368.75 C 281.25 365.308594 278.441406 362.5 275 362.5 Z M 219.140625 406.25 L 238.355469 406.25 C 241.089844 418.410156 250 433.324219 250 433.324219 C 250 433.324219 258.910156 418.410156 261.644531 406.25 L 280.859375 406.25 C 277.660156 432.738281 255.226563 450.195313 250 454.078125 C 244.777344 450.195313 222.339844 432.738281 219.140625 406.25 Z "/>
</g>
</svg>
