<?xml version="1.0" encoding="UTF-8"?>
<svg xmlns="http://www.w3.org/2000/svg" xmlns:xlink="http://www.w3.org/1999/xlink" width="25pt" height="25pt" viewBox="0 0 25 25" version="1.1">
<g id="surface1">
<path style=" stroke:none;fill-rule:nonzero;fill:#000000;fill-opacity:1;" d="M 20.3125 0 L 4.6875 0 C 2.101563 0 0 2.101563 0 4.6875 L 0 20.3125 C 0 22.898438 2.101563 25 4.6875 25 L 20.3125 25 C 22.898438 25 25 22.898438 25 20.3125 L 25 4.6875 C 25 2.101563 22.898438 0 20.3125 0 Z M 7.730469 21.222656 L 3.847656 21.222656 L 3.824219 9.59375 L 7.707031 9.59375 Z M 5.691406 8.070313 L 5.667969 8.070313 C 4.398438 8.070313 3.578125 7.195313 3.578125 6.105469 C 3.578125 4.992188 4.425781 4.148438 5.714844 4.148438 C 7.007813 4.148438 7.800781 4.992188 7.828125 6.105469 C 7.828125 7.195313 7.003906 8.070313 5.691406 8.070313 Z M 21.195313 21.222656 L 17.277344 21.222656 L 17.277344 14.902344 C 17.277344 13.375 16.871094 12.335938 15.503906 12.335938 C 14.460938 12.335938 13.898438 13.039063 13.625 13.71875 C 13.523438 13.960938 13.5 14.296875 13.5 14.636719 L 13.5 21.222656 L 9.5625 21.222656 L 9.539063 9.59375 L 13.476563 9.59375 L 13.5 11.234375 C 14.003906 10.457031 14.839844 9.355469 16.84375 9.355469 C 19.332031 9.355469 21.191406 10.980469 21.191406 14.46875 L 21.191406 21.222656 Z "/>
</g>
</svg>
