<?xml version="1.0" encoding="UTF-8"?>
<svg xmlns="http://www.w3.org/2000/svg" xmlns:xlink="http://www.w3.org/1999/xlink" width="25pt" height="25pt" viewBox="0 0 25 25" version="1.1">
<g id="surface1">
<path style=" stroke:none;fill-rule:nonzero;fill:#000000;fill-opacity:1;" d="M 20.3125 0 L 4.6875 0 C 2.101563 0 0 2.101563 0 4.6875 L 0 20.3125 C 0 22.898438 2.101563 25 4.6875 25 L 20.3125 25 C 22.898438 25 25 22.898438 25 20.3125 L 25 4.6875 C 25 2.101563 22.898438 0 20.3125 0 Z M 19.679688 13.464844 L 17.335938 13.464844 L 17.335938 22.121094 L 13.429688 22.121094 L 13.429688 13.464844 L 11.914063 13.464844 L 11.914063 10.546875 L 13.429688 10.546875 L 13.429688 8.6875 C 13.429688 6.253906 14.441406 4.808594 17.316406 4.808594 L 20.222656 4.808594 L 20.222656 7.714844 L 18.53125 7.714844 C 17.417969 7.714844 17.339844 8.128906 17.339844 8.910156 L 17.335938 10.546875 L 19.996094 10.546875 Z "/>
</g>
</svg>
