<?xml version="1.0" encoding="UTF-8"?>
<svg xmlns="http://www.w3.org/2000/svg" xmlns:xlink="http://www.w3.org/1999/xlink" width="25pt" height="25pt" viewBox="0 0 25 25" version="1.1">
<g id="surface1">
<path style=" stroke:none;fill-rule:nonzero;fill:#000000;fill-opacity:1;" d="M 12.5 2.34375 C 6.898438 2.34375 2.34375 6.898438 2.34375 12.5 C 2.34375 18.101563 6.898438 22.65625 12.5 22.65625 C 18.101563 22.65625 22.65625 18.101563 22.65625 12.5 C 22.65625 6.898438 18.101563 2.34375 12.5 2.34375 Z M 11.621094 3.953125 C 11.65625 3.953125 11.683594 3.957031 11.71875 3.953125 L 11.71875 11.71875 L 9.328125 11.71875 C 9.160156 9.523438 8.304688 7.515625 6.957031 5.933594 C 8.242188 4.847656 9.847656 4.136719 11.621094 3.953125 Z M 13.28125 3.953125 C 15.089844 4.117188 16.734375 4.824219 18.042969 5.933594 C 16.695313 7.515625 15.839844 9.523438 15.671875 11.71875 L 13.28125 11.71875 Z M 5.859375 7.054688 C 6.925781 8.351563 7.601563 9.953125 7.765625 11.71875 L 3.953125 11.71875 C 4.113281 9.953125 4.796875 8.351563 5.859375 7.054688 Z M 19.140625 7.054688 C 20.203125 8.351563 20.886719 9.953125 21.046875 11.71875 L 17.234375 11.71875 C 17.398438 9.953125 18.074219 8.351563 19.140625 7.054688 Z M 3.953125 13.28125 L 7.765625 13.28125 C 7.601563 15.046875 6.925781 16.648438 5.859375 17.945313 C 4.796875 16.648438 4.113281 15.046875 3.953125 13.28125 Z M 9.328125 13.28125 L 11.71875 13.28125 L 11.71875 21.046875 C 9.910156 20.882813 8.265625 20.175781 6.957031 19.066406 C 8.304688 17.484375 9.160156 15.476563 9.328125 13.28125 Z M 13.28125 13.28125 L 15.671875 13.28125 C 15.839844 15.476563 16.695313 17.484375 18.042969 19.066406 C 16.734375 20.175781 15.089844 20.882813 13.28125 21.046875 Z M 17.234375 13.28125 L 21.046875 13.28125 C 20.886719 15.046875 20.203125 16.648438 19.140625 17.945313 C 18.074219 16.648438 17.398438 15.046875 17.234375 13.28125 Z "/>
</g>
</svg>
