<?xml version="1.0" encoding="UTF-8"?>
<svg xmlns="http://www.w3.org/2000/svg" xmlns:xlink="http://www.w3.org/1999/xlink" width="500pt" height="500pt" viewBox="0 0 500 500" version="1.1">
<g id="surface1">
<path style=" stroke:none;fill-rule:nonzero;fill:#ffffff;fill-opacity:1;" d="M 137.5 59.914063 L 59.914063 137.5 L 170.582031 248.167969 L 179.417969 239.332031 L 77.589844 137.5 L 137.5 77.589844 L 239.332031 179.417969 L 248.167969 170.582031 Z M 403.492188 62.523438 C 394.75 62.523438 386.035156 65.84375 379.394531 72.460938 L 374.121094 77.757813 L 368.75 72.414063 L 322.414063 118.75 L 94.628906 346.507813 L 57.863281 442.113281 L 153.492188 405.371094 L 154.417969 404.417969 L 427.589844 131.25 L 422.242188 125.878906 L 427.539063 120.605469 C 437.621094 110.5 439.894531 95.558594 434.59375 83.128906 L 438.183594 83.128906 L 427.539063 72.460938 C 420.921875 65.871094 412.207031 62.550781 403.492188 62.523438 Z M 403.46875 74.976563 C 408.960938 74.976563 414.453125 77.074219 418.675781 81.324219 C 427.148438 89.769531 427.148438 103.296875 418.675781 111.742188 L 413.378906 117.066406 L 382.933594 86.621094 L 388.257813 81.324219 C 392.480469 77.074219 397.972656 74.953125 403.46875 74.976563 Z M 368.75 90.089844 L 409.914063 131.25 L 381.691406 159.472656 L 340.527344 118.3125 Z M 143.75 106.25 C 140.308594 106.25 137.5 109.058594 137.5 112.5 C 137.5 115.941406 140.308594 118.75 143.75 118.75 C 147.191406 118.75 150 115.941406 150 112.5 C 150 109.058594 147.191406 106.25 143.75 106.25 Z M 125 125 C 121.558594 125 118.75 127.808594 118.75 131.25 C 118.75 134.691406 121.558594 137.5 125 137.5 C 128.441406 137.5 131.25 134.691406 131.25 131.25 C 131.25 127.808594 128.441406 125 125 125 Z M 162.5 125 C 159.058594 125 156.25 127.808594 156.25 131.25 C 156.25 134.691406 159.058594 137.5 162.5 137.5 C 165.941406 137.5 168.75 134.691406 168.75 131.25 C 168.75 127.808594 165.941406 125 162.5 125 Z M 331.25 127.589844 L 372.414063 168.75 L 154.101563 387.0625 C 153.003906 383.617188 151.292969 379.957031 148.167969 376.832031 C 143.578125 372.242188 137.792969 370.558594 133.253906 369.652344 C 131.8125 369.359375 131.8125 369.507813 130.640625 369.359375 C 130.492188 368.1875 130.640625 368.1875 130.347656 366.75 C 129.445313 362.207031 127.757813 356.421875 123.167969 351.832031 C 120.042969 348.707031 116.382813 346.996094 112.941406 345.898438 Z M 181.25 143.75 C 177.808594 143.75 175 146.558594 175 150 C 175 153.441406 177.808594 156.25 181.25 156.25 C 184.691406 156.25 187.5 153.441406 187.5 150 C 187.5 146.558594 184.691406 143.75 181.25 143.75 Z M 331.25 143.75 C 327.808594 143.75 325 146.558594 325 150 C 325 153.441406 327.808594 156.25 331.25 156.25 C 334.691406 156.25 337.5 153.441406 337.5 150 C 337.5 146.558594 334.691406 143.75 331.25 143.75 Z M 162.5 162.5 C 159.058594 162.5 156.25 165.308594 156.25 168.75 C 156.25 172.191406 159.058594 175 162.5 175 C 165.941406 175 168.75 172.191406 168.75 168.75 C 168.75 165.308594 165.941406 162.5 162.5 162.5 Z M 200 162.5 C 196.558594 162.5 193.75 165.308594 193.75 168.75 C 193.75 172.191406 196.558594 175 200 175 C 203.441406 175 206.25 172.191406 206.25 168.75 C 206.25 165.308594 203.441406 162.5 200 162.5 Z M 312.5 162.5 C 309.058594 162.5 306.25 165.308594 306.25 168.75 C 306.25 172.191406 309.058594 175 312.5 175 C 315.941406 175 318.75 172.191406 318.75 168.75 C 318.75 165.308594 315.941406 162.5 312.5 162.5 Z M 218.75 181.25 C 215.308594 181.25 212.5 184.058594 212.5 187.5 C 212.5 190.941406 215.308594 193.75 218.75 193.75 C 222.191406 193.75 225 190.941406 225 187.5 C 225 184.058594 222.191406 181.25 218.75 181.25 Z M 293.75 181.25 C 290.308594 181.25 287.5 184.058594 287.5 187.5 C 287.5 190.941406 290.308594 193.75 293.75 193.75 C 297.191406 193.75 300 190.941406 300 187.5 C 300 184.058594 297.191406 181.25 293.75 181.25 Z M 200 200 C 196.558594 200 193.75 202.808594 193.75 206.25 C 193.75 209.691406 196.558594 212.5 200 212.5 C 203.441406 212.5 206.25 209.691406 206.25 206.25 C 206.25 202.808594 203.441406 200 200 200 Z M 275 200 C 271.558594 200 268.75 202.808594 268.75 206.25 C 268.75 209.691406 271.558594 212.5 275 212.5 C 278.441406 212.5 281.25 209.691406 281.25 206.25 C 281.25 202.808594 278.441406 200 275 200 Z M 256.25 218.75 C 252.808594 218.75 250 221.558594 250 225 C 250 228.441406 252.808594 231.25 256.25 231.25 C 259.691406 231.25 262.5 228.441406 262.5 225 C 262.5 221.558594 259.691406 218.75 256.25 218.75 Z M 237.5 237.5 C 234.058594 237.5 231.25 240.308594 231.25 243.75 C 231.25 247.191406 234.058594 250 237.5 250 C 240.941406 250 243.75 247.191406 243.75 243.75 C 243.75 240.308594 240.941406 237.5 237.5 237.5 Z M 329.417969 251.832031 L 320.582031 260.667969 L 422.414063 362.5 L 362.5 422.414063 L 260.667969 320.582031 L 251.832031 329.417969 L 362.5 440.089844 L 440.089844 362.5 Z M 218.75 256.25 C 215.308594 256.25 212.5 259.058594 212.5 262.5 C 212.5 265.941406 215.308594 268.75 218.75 268.75 C 222.191406 268.75 225 265.941406 225 262.5 C 225 259.058594 222.191406 256.25 218.75 256.25 Z M 200 275 C 196.558594 275 193.75 277.808594 193.75 281.25 C 193.75 284.691406 196.558594 287.5 200 287.5 C 203.441406 287.5 206.25 284.691406 206.25 281.25 C 206.25 277.808594 203.441406 275 200 275 Z M 312.5 277.027344 C 309.058594 277.027344 306.25 279.808594 306.25 283.277344 C 306.25 286.71875 309.058594 289.527344 312.5 289.527344 C 315.941406 289.527344 318.75 286.71875 318.75 283.277344 C 318.75 279.808594 315.941406 277.027344 312.5 277.027344 Z M 181.25 293.75 C 177.808594 293.75 175 296.558594 175 300 C 175 303.441406 177.808594 306.25 181.25 306.25 C 184.691406 306.25 187.5 303.441406 187.5 300 C 187.5 296.558594 184.691406 293.75 181.25 293.75 Z M 331.25 293.75 C 327.808594 293.75 325 296.558594 325 300 C 325 303.441406 327.808594 306.25 331.25 306.25 C 334.691406 306.25 337.5 303.441406 337.5 300 C 337.5 296.558594 334.691406 293.75 331.25 293.75 Z M 293.75 295.777344 C 290.308594 295.777344 287.5 298.558594 287.5 302.027344 C 287.5 305.46875 290.308594 308.277344 293.75 308.277344 C 297.191406 308.277344 300 305.46875 300 302.027344 C 300 298.558594 297.191406 295.777344 293.75 295.777344 Z M 162.5 312.5 C 159.058594 312.5 156.25 315.308594 156.25 318.75 C 156.25 322.191406 159.058594 325 162.5 325 C 165.941406 325 168.75 322.191406 168.75 318.75 C 168.75 315.308594 165.941406 312.5 162.5 312.5 Z M 350 314.527344 C 346.558594 314.527344 343.75 317.308594 343.75 320.777344 C 343.75 324.21875 346.558594 327.027344 350 327.027344 C 353.441406 327.027344 356.25 324.21875 356.25 320.777344 C 356.25 317.308594 353.441406 314.527344 350 314.527344 Z M 143.75 331.25 C 140.308594 331.25 137.5 334.058594 137.5 337.5 C 137.5 340.941406 140.308594 343.75 143.75 343.75 C 147.191406 343.75 150 340.941406 150 337.5 C 150 334.058594 147.191406 331.25 143.75 331.25 Z M 368.75 331.25 C 365.308594 331.25 362.5 334.058594 362.5 337.5 C 362.5 340.941406 365.308594 343.75 368.75 343.75 C 372.191406 343.75 375 340.941406 375 337.5 C 375 334.058594 372.191406 331.25 368.75 331.25 Z M 331.25 333.277344 C 327.808594 333.277344 325 336.058594 325 339.527344 C 325 342.96875 327.808594 345.777344 331.25 345.777344 C 334.691406 345.777344 337.5 342.96875 337.5 339.527344 C 337.5 336.058594 334.691406 333.277344 331.25 333.277344 Z M 387.5 352.027344 C 384.058594 352.027344 381.25 354.808594 381.25 358.277344 C 381.25 361.71875 384.058594 364.527344 387.5 364.527344 C 390.941406 364.527344 393.75 361.71875 393.75 358.277344 C 393.75 354.808594 390.941406 352.027344 387.5 352.027344 Z M 104.125 356.664063 C 104.710938 356.761719 105.152344 356.789063 105.8125 356.910156 C 109.082031 357.570313 112.671875 359.007813 114.332031 360.667969 C 115.992188 362.328125 117.433594 365.917969 118.089844 369.191406 C 118.75 372.460938 118.75 375 118.75 375 L 118.75 381.25 L 125 381.25 C 125 381.25 127.539063 381.25 130.8125 381.910156 C 134.082031 382.570313 137.671875 384.007813 139.332031 385.667969 C 140.992188 387.328125 142.433594 390.917969 143.089844 394.191406 C 143.214844 394.847656 143.238281 395.289063 143.335938 395.875 L 100.023438 412.523438 L 87.476563 399.976563 Z M 368.75 370.777344 C 365.308594 370.777344 362.5 373.558594 362.5 377.027344 C 362.5 380.46875 365.308594 383.277344 368.75 383.277344 C 372.191406 383.277344 375 380.46875 375 377.027344 C 375 373.558594 372.191406 370.777344 368.75 370.777344 Z "/>
</g>
</svg>
